Patient4_TMGait_0pt2_02_right_21_EMG.mot
version=1
nRows=23
nColumns=33
inDegrees=no
endheader
time	1LAddLong	2LGlutMax	3LGlutMed	4LIliopsoas	5LSemiMemb	6LBicFemLong	7LRecFem	8LVastMed	9LVastLat	10LGasMed	11LTibAnt	12lTibPost	13LPeroneusLong	14LSol	15LExtDigLong	16LFlexDigLong	17RAddLong	18RGlutMax	19RGlutMed	20RIliopsoas	21RSemiMemb	22RBicFemLong	23RRecFem	24RVastMed	25RVastLat	26RGasMed	27RTibAnt	28RTibPost	29RPeroneusLong	30RSol	31RExtDigLong	32RFlexDigLong
48.733	0.024719	-0.14893	-0.063324	-0.023193	-0.027466	-0.25696	-0.057831	0.029907	-0.035706	0.10315	-0.085754	-0.015106	-0.045471	0.014648	0.036926	0.004425	-0.090027	-0.065002	0.067139	-0.12329	0.037537	0.042877	-0.003967	-0.012207	0.015869	-0.01297	0.46356	-0.002136	-0.16937	0.013123	-0.001678	-0.006866
48.734	0.028687	-0.093079	0.03418	-0.030212	-0.006409	-0.30228	-0.31433	0.015869	0.20584	0.12909	-0.060272	-0.009003	-0.15503	-0.058441	-0.11932	0.012054	-0.075073	-0.018463	-0.20309	-0.16388	0.036316	0.056458	-0.008545	-0.033417	0.018768	-0.015564	0.77881	-0.006714	-0.16724	0.059357	-0.002747	-0.005798
48.735	0.02655	-0.066986	0.031738	-0.010376	0.028534	-0.44662	-0.31235	-0.012512	0.23514	0.085449	-0.027466	-0.014801	-0.075531	-0.067596	0.2359	-0.005341	-0.059967	-0.050964	-0.44968	0.01358	0.02243	0.034943	0.030518	-0.034943	0.007172	-0.015259	0.59876	-0.002441	-0.31967	0.11658	0.000305	-0.003967
48.736	0.01297	-0.019073	-0.064087	0.009003	0.022278	-0.32944	-0.25955	-0.019531	0.079803	-0.078888	-0.020599	-0.009003	-0.062103	-0.008698	0.11902	0.00824	-0.038452	-0.059814	-0.11032	0.075226	0.020752	0.048676	0.013733	-0.070953	0.04303	-0.013123	0.41779	-0.005951	-0.38116	0.1033	-0.002899	-0.002136
48.737	0.003967	-0.033722	-0.069427	0.025177	0.020447	-0.2002	-0.11734	0.000458	0.043182	-0.051727	-0.040741	-0.005951	-0.037842	0.040283	0.074921	0.007324	-0.02533	-0.014343	0.23911	0.10132	0.024567	0.042725	0.007477	-0.058746	0.043945	-0.012054	0.1268	-0.002747	-0.32928	0.019379	0	-0.002594
48.738	-0.000916	-0.013428	-0.075684	0.03418	0.016632	-0.074005	-0.089569	0.02655	0.018311	0.02594	-0.000916	-0.005646	-0.15274	0.028534	0.008392	0.031586	-0.0177	-0.014191	-0.021973	0.002441	0.020599	0.038147	-0.004883	-0.046539	0.021057	-0.004578	0.48004	-0.002594	-0.10254	-0.094604	-0.00351	0.004272
48.739	0.011902	-0.015717	-0.33936	0.031433	0.010071	0.037537	-0.15869	0.039825	0.12238	0.06134	0.022888	-0.011139	-0.03418	-0.084381	0.024719	0.016479	0.031128	-0.072479	-0.16968	-0.040436	0.016327	0.020447	0.018158	-0.056305	0.02243	-0.003662	0.55023	-0.001526	0.1471	-0.16892	0.000763	0.005035
48.74	0.020752	0.01358	-0.21423	0.00473	0.015411	0.056915	-0.19424	0.034332	0.24536	0.082397	0.014954	-0.011139	0.029755	-0.080872	-0.011444	0.005188	0.054016	-0.011292	-0.19745	-0.16281	0.016937	0.000305	0.053864	-0.077667	0.001678	0.001068	-0.19745	-0.003967	-0.027771	-0.17868	-0.003662	0.011902
48.741	0.029449	0.031433	-0.14389	0.010071	0.010986	0.062866	-0.091705	0.055695	0.33066	-0.001068	-0.005188	-0.012207	-0.018921	-0.041351	0.048065	0.001984	0.039673	0.011902	-0.029144	-0.21866	0.037384	-0.009155	0.080719	-0.063477	0.019989	-0.001068	-0.22369	-0.003815	-0.093384	-0.14923	-0.004883	0.003815
48.742	0.019226	-0.00473	0.15106	0.004272	0.010223	0.065002	-0.046844	0.029144	0.25314	-0.10346	-0.00885	-0.004578	-0.030823	-0.078583	0.075226	0.020447	0.016632	0.014954	0.1445	-0.1712	0.028839	-0.011597	0.0354	-0.043488	0.039063	-0.007629	0.11902	-0.002899	-0.005035	-0.088348	-0.007629	0.005493
48.743	0.005646	-0.033875	0.17502	0.001068	0.00473	0.087128	0.010529	0.001831	0.12054	-0.058746	-0.009003	-0.008545	-0.028839	-0.10284	0.051422	0.016479	-0.023499	-0.02182	-0.060272	-0.15167	-0.009003	0.012207	0.055237	-0.025635	0.036163	-0.008087	0.26779	-0.003204	-0.083771	-0.070801	-0.009155	-0.000916
48.744	0.008392	-0.039215	0.10819	0.011597	0.005035	-0.019073	0.018311	0.018921	-0.079803	-0.012512	0.002747	-0.003052	-0.013428	-0.092926	0.031586	0.025635	-0.059814	-0.10559	-0.009308	0.038605	-0.070496	0.015259	0.048065	-0.03891	0.037842	0.01236	-0.3447	-0.007477	0.13931	-0.16892	-0.003357	0.005646
48.745	0.006409	-0.049286	0.061493	0.013428	0.002594	-0.10101	0.068054	0.005951	-0.21942	0.000153	-0.001678	-0.003662	-0.029755	-0.041962	0.065308	0.021515	-0.041046	-0.094147	-0.006561	0.28458	-0.10559	0.040741	0.016022	-0.056915	0.044708	0.011292	-1.1894	-0.002594	0.28671	-0.20966	-0.005798	0.00824
48.746	0.008087	-0.019226	0.057831	0.014801	0.00885	0.000916	0.002747	0.00351	-0.25299	-0.00473	-0.006104	-0.008698	-0.014954	0.004425	0.045624	0.03418	-0.024567	-0.074463	-0.88745	0.27649	-0.14328	0.032349	0.004578	-0.050049	0.043793	0.010223	-1.0884	-0.003052	0.34103	-0.15915	-0.003052	0.005493
48.747	-0.004425	-0.002594	0.097351	-0.002441	-0.000763	0.25482	-0.080872	0.008698	-0.28153	-0.002747	-0.014038	-0.006104	0.056915	0.02655	-0.011139	0.03006	-0.014038	-0.065002	-1.5305	0.2359	-0.11749	0.026855	0.015717	-0.015106	0.053406	0.005493	-0.41657	-0.003052	0.26703	-0.11673	-0.00351	-0.006714
48.748	-0.003967	0.000916	0.10666	0.002594	-0.00412	0.24597	-0.14877	-0.014343	-0.11612	0.000916	-0.018768	-0.005493	0.05661	0.030518	-0.013275	0.021667	-0.017853	-0.03067	-1.9379	0.10544	0.13428	0.043335	0.036621	-0.020752	0.038452	0.001068	-0.36118	0.00351	0.13168	0.092163	-0.002289	-0.001526
48.749	0.010986	-0.009308	0.11597	-0.018158	-0.006256	0.21042	-0.099335	-0.028687	0.061646	0.004272	-0.016785	-0.002441	-0.001526	-0.019226	0.017395	0.018463	0.010529	0.040131	1.0226	-0.089569	0.1062	0.039825	0.042267	-0.00885	0.031128	-0.002136	-0.27756	-0.006561	0.056458	0.13443	0.000153	-0.001984
48.75	-0.001068	0.032654	0.11627	-0.003662	-0.004425	0.12741	0.11002	-0.035858	0.1683	0.010376	0.00351	-0.003204	-0.005493	-0.029907	-0.011292	0.018921	0.017242	0.13534	2.4234	-0.077362	0.053253	0.072784	0.02655	-0.036621	0.037994	-0.002136	-0.068359	-0.002747	-0.005035	0.061035	-0.001373	-0.005798
48.751	-0.010223	0.025787	0.084839	-0.009766	-0.004578	-0.29984	0.18417	-0.039978	0.11276	0.012054	-0.003662	-0.006714	0.1181	0.002747	-0.042267	0.03067	0.028687	0.06012	0.57846	0.23086	0.031433	0.067749	-0.002289	-0.010986	0.050049	-0.007477	-0.21515	-0.007782	0.039825	0.061035	-0.004883	-0.008392
48.752	-0.011139	0.015564	0.12024	0.004425	-0.004883	-0.34805	0.21057	-0.013428	0.066223	0.020142	-0.037842	-0.003815	0.065613	0.02594	0.23987	0.013733	0.048065	-0.002136	-1.0156	0.31967	0.019989	0.063324	-0.035706	0.011139	0.074768	-0.009766	-0.3421	-0.003357	0.14755	0.084534	0.002441	-0.007935
48.753	-0.02182	0.012512	0.16327	-0.004425	-0.010681	-0.14847	0.13397	0.00946	0.049896	0.027924	0.085907	-0.002289	0.067596	0.004578	0.003052	0.021667	0.099945	-0.057526	-0.57068	0.18646	0.010681	0.10834	-0.032501	0.00946	0.069427	-0.012817	-0.2301	-0.004578	0.30334	0.073395	-0.006104	0.00473
48.754	-0.023041	0.020599	0.14999	-0.007629	-0.012512	0.023804	-0.02655	0.006714	0.029449	0.027924	0.1445	-0.000458	0.014801	0.033569	-0.056763	0.012665	0.15564	-0.09079	-0.71396	0.12726	0.000458	0.11231	-0.027924	0.021362	0.073395	-0.00473	-0.31494	-0.000305	0.4303	0.059814	0	-0.005341
48.755	-0.009918	0.019684	0.052032	-0.025787	-0.006104	0.14267	-0.14267	0.00885	0.045776	0.021515	0.29419	-0.000305	0.019073	0.094299	-0.35492	0.019226	0.11673	-0.12268	-1.0933	0.098572	-0.078888	0.062866	-0.060425	-0.052185	0.068665	-0.000458	-0.24521	-0.001984	-0.24796	0.079651	0.003967	-0.010071
